<?xml version="1.0" encoding="UTF-8" standalone="no"?>
<!-- Created with Inkscape (http://www.inkscape.org/) -->

<svg
   width="180"
   height="180"
   viewBox="0 0 180 180"
   version="1.1"
   id="svg5"
   inkscape:version="1.1.2 (b8e25be833, 2022-02-05)"
   sodipodi:docname="FONDO.svg"
   xmlns:inkscape="http://www.inkscape.org/namespaces/inkscape"
   xmlns:sodipodi="http://sodipodi.sourceforge.net/DTD/sodipodi-0.dtd"
   xmlns="http://www.w3.org/2000/svg"
   xmlns:svg="http://www.w3.org/2000/svg">
  <sodipodi:namedview
     id="namedview7"
     pagecolor="#ffffff"
     bordercolor="#666666"
     borderopacity="1.0"
     inkscape:pageshadow="2"
     inkscape:pageopacity="0.0"
     inkscape:pagecheckerboard="0"
     inkscape:document-units="px"
     showgrid="false"
     inkscape:zoom="2.2111111"
     inkscape:cx="45.904523"
     inkscape:cy="111.25628"
     inkscape:window-width="1920"
     inkscape:window-height="974"
     inkscape:window-x="-11"
     inkscape:window-y="-11"
     inkscape:window-maximized="1"
     inkscape:current-layer="layer1" />
  <defs
     id="defs2" />
  <g
     inkscape:label="Capa 1"
     inkscape:groupmode="layer"
     id="layer1">
    <ellipse
       style="fill:#b3b3b3;fill-opacity:1;stroke:none;stroke-width:4.9827"
       id="path6324"
       cx="115.04772"
       cy="88.292801"
       rx="20.24169"
       ry="27.467947"
       transform="matrix(0.95612411,-0.29296192,0.29423349,0.95573357,0,0)" />
    <path
       style="fill:#b3b3b3;fill-opacity:1;stroke:none;stroke-width:1.21137px;stroke-linecap:butt;stroke-linejoin:miter;stroke-opacity:1"
       d="m 60.945009,70.525186 -14.598343,0.513997 -10.510807,2.312992 -5.255406,2.569991 -4.379505,3.340989 -1.167866,3.083988 v 3.597988 l 6.131305,7.709973 5.547373,4.625991 3.767738,6.305175 0.07185,9.62342 c -0.687073,2.52051 -0.600201,7.18619 3.355339,7.86185 l 4.114867,1.52775 4.532692,2.87351 4.340487,1.39155 6.124659,-1.40717 7.560537,-4.53221 5.255402,-2.56999 4.087538,-1.54199 h 8.759009 l 8.175066,1.02799 8.759016,1.542 16.35014,5.39699 7.0072,1.02799 7.59115,-0.77102 5.98531,-2.76272 3.61309,-4.1441 c 0,0 1.0447,-3.65513 -2.00726,-10.31208 l -2.33574,-4.62599 0.65692,-3.66224 4.01455,-6.617737 5.83933,-4.368985 0.87591,-1.027995 3.19696,-2.403855 c 2.6164,-2.403903 3.78091,-3.24107 3.65845,-5.702086 -1.13347,-4.307226 -2.31855,-4.062884 -5.10361,-4.744014 l -5.25541,0.256998 -8.17506,2.055993 -5.82163,4.446933 -4.40278,5.381391 -7.98306,4.161596 -10.43183,1.614454 -13.606796,0.515258 c 0,0 -16.301375,1.128264 -7.358941,-18.55199 l 3.853892,-6.161684 1.554647,-6.215532 -2.408725,-2.602114 -3.832072,-0.321244 -6.204289,0.513996 -11.094751,5.139978 -3.795572,3.597987"
       id="path1860"
       sodipodi:nodetypes="ccccccccccccccccccccccccccccccccccccccccccccccccccc" />
    <path
       style="fill:#5c5c5c;stroke-width:0.346634;fill-opacity:1"
       d="m 31.940014,147.55412 c -11.97428,-3.45514 -19.754161,-5.86825 -20.189498,-6.26222 -0.389544,-0.35253 -0.864252,-1.20253 -1.054907,-1.88888 -0.484665,-1.74478 -0.47502,-98.189917 0.01,-99.936242 0.435649,-1.568586 1.791912,-2.7012 3.23924,-2.705082 0.593898,-0.0017 9.625841,2.450149 20.070985,5.448321 l 18.99117,5.451214 18.983947,-5.448317 c 10.441171,-2.996576 19.365758,-5.44832 19.832411,-5.44832 0.466653,0 3.031763,0.623942 5.700247,1.386537 2.668491,0.762595 4.869841,1.386537 4.891901,1.386537 0.0221,0 0.31625,-0.723062 0.65376,-1.606806 0.9668,-2.531535 4.45899,-7.47292 6.83904,-9.677116 5.89307,-5.457657 12.7972,-8.185206 20.71887,-8.185206 4.23167,0 7.52571,0.617824 11.25436,2.110845 6.85812,2.746125 13.07599,8.646169 16.04,15.220115 0.48724,1.080666 0.91191,2.001012 0.9437,2.045211 0.0318,0.0442 2.23119,-0.54075 4.88755,-1.299878 2.65636,-0.759133 5.31591,-1.380239 5.9101,-1.380239 1.44646,0 2.80371,1.132035 3.23979,2.702184 0.5441,1.959076 0.455,98.653622 -0.0924,100.215712 -0.22755,0.64941 -0.80369,1.46001 -1.28031,1.80131 -1.0863,0.7779 -39.22151,11.74989 -40.83894,11.74989 -0.65338,0 -9.66989,-2.43093 -20.03668,-5.40206 l -18.84871,-5.40207 -18.805679,5.40479 c -11.347127,3.26119 -19.355597,5.39215 -20.192216,5.37291 -0.762596,-0.0175 -10.153093,-2.56145 -20.867774,-5.65314 z m 39.848444,-6.97258 c 10.338505,-2.95505 19.345559,-5.37283 20.015679,-5.37283 0.670121,0 9.679223,2.41836 20.020243,5.37414 l 18.80184,5.37413 17.41885,-4.978 17.41884,-4.978 0.0879,-45.418765 0.0879,-45.418764 -2.42812,0.741433 -2.42812,0.741434 -0.1339,3.984969 c -0.15192,4.521261 -0.83377,7.426617 -2.97087,12.658887 -3.83333,9.38517 -14.24684,24.765383 -22.95159,33.898321 -2.41836,2.537324 -2.61358,2.66508 -4.07114,2.664324 -1.42101,-6.93e-4 -1.68278,-0.156391 -3.64487,-2.167261 -1.16266,-1.191555 -3.88144,-4.363896 -6.04176,-7.049642 C 107.05174,73.333128 100.46999,60.110253 100.46999,49.452138 V 46.602125 L 96.135984,45.371463 91.801974,44.1408 72.387695,49.689832 52.973416,55.23886 35.470955,50.229368 17.968493,45.219873 l 0.08794,45.39129 0.08794,45.391287 17.158394,4.94013 c 9.437116,2.71706 17.27765,4.95624 17.423406,4.97595 0.145756,0.0197 8.723788,-2.38193 19.062292,-5.33699 z M 133.12358,87.806483 c 8.99105,-10.931287 16.2889,-22.699169 18.8234,-30.352998 2.82747,-8.538557 0.93876,-16.984997 -5.20132,-23.260636 -2.53464,-2.590601 -5.34742,-4.343934 -9.01582,-5.619973 -2.45626,-0.854401 -3.26015,-0.963446 -7.10267,-0.963446 -3.83075,0 -4.65013,0.110383 -7.06977,0.9524 -3.98479,1.386679 -7.16132,3.412853 -9.77318,6.233902 -4.07892,4.40561 -6.36636,10.788685 -5.92364,16.529822 0.6545,8.48738 7.33836,20.659517 19.55625,35.614343 1.59651,1.954151 3.0365,3.553001 3.19995,3.553001 0.16346,0 1.29152,-1.208887 2.5068,-2.686415 z M 127.8541,63.328079 c -4.07946,-0.889897 -7.8415,-3.921556 -9.64149,-7.769647 -0.81115,-1.73411 -0.92714,-2.415735 -0.92714,-5.448421 0,-3.032685 0.11599,-3.71431 0.92714,-5.44842 2.60101,-5.560523 8.81891,-8.922376 14.58102,-7.883558 4.3805,0.789733 8.36287,3.853252 10.2481,7.883558 0.812,1.735912 0.92682,2.412581 0.92457,5.44842 -0.002,3.194308 -0.0899,3.645591 -1.11579,5.750357 -1.90954,3.917813 -5.66556,6.769967 -9.96116,7.564051 -2.4118,0.445844 -2.56303,0.44295 -5.03525,-0.09634 z m 5.55957,-7.852083 c 4.32487,-2.206386 4.32487,-8.525583 0,-10.731969 -3.48452,-1.777668 -7.6765,0.08207 -8.69285,3.856517 -1.34174,4.982857 4.04746,9.245348 8.69285,6.875452 z"
       id="path4996" />
    <circle
       style="fill:#ffffff;fill-opacity:1;stroke:none;stroke-width:6.76923"
       id="path6573"
       cx="130.79698"
       cy="50.048237"
       r="6.3959408" />
  </g>
</svg>
