<?xml version="1.0" encoding="UTF-8" standalone="no"?>
<!-- Created with Inkscape (http://www.inkscape.org/) -->

<svg
   width="50"
   height="40"
   viewBox="0 0 95 76"
   version="1.1"
   id="svg5"
   inkscape:version="1.1.2 (b8e25be833, 2022-02-05)"
   sodipodi:docname="fondo.svg"
   xmlns:inkscape="http://www.inkscape.org/namespaces/inkscape"
   xmlns:sodipodi="http://sodipodi.sourceforge.net/DTD/sodipodi-0.dtd"
   xmlns="http://www.w3.org/2000/svg"
   xmlns:svg="http://www.w3.org/2000/svg">
  <sodipodi:namedview
     id="namedview7"
     pagecolor="#ffffff"
     bordercolor="#666666"
     borderopacity="1.0"
     inkscape:pageshadow="2"
     inkscape:pageopacity="0.0"
     inkscape:pagecheckerboard="0"
     inkscape:document-units="px"
     showgrid="false"
     inkscape:zoom="2.2111111"
     inkscape:cx="45.904523"
     inkscape:cy="111.25628"
     inkscape:window-width="1920"
     inkscape:window-height="974"
     inkscape:window-x="-11"
     inkscape:window-y="-11"
     inkscape:window-maximized="1"
     inkscape:current-layer="layer1" />
  <defs
     id="defs2" />
  <g
     inkscape:label="Capa 1"
     inkscape:groupmode="layer"
     id="layer1">
    <ellipse
       style="fill:#b3b3b3;fill-opacity:1;stroke:none;stroke-width:1.99714"
       id="path6324"
       cx="58.035633"
       cy="38.139046"
       rx="8.1131706"
       ry="11.009562"
       transform="matrix(0.95612411,-0.29296192,0.29423349,0.95573357,0,0)" />
    <path
       style="fill:#b3b3b3;fill-opacity:1;stroke:none;stroke-width:0.485535px;stroke-linecap:butt;stroke-linejoin:miter;stroke-opacity:1"
       d="m 36.636484,27.402865 -5.851233,0.206018 -4.212891,0.92708 -2.106445,1.030091 -1.75537,1.339118 -0.468098,1.236109 v 1.442127 l 2.457518,3.090274 2.223469,1.854166 1.510166,2.52721 0.0288,3.85721 c -0.275389,1.010257 -0.240569,2.880334 1.344873,3.151147 l 1.649299,0.612343 1.81677,1.151747 1.739732,0.557753 2.454858,-0.564011 3.030376,-1.816581 2.10644,-1.030089 1.638347,-0.61805 h 3.510743 l 3.276695,0.412032 3.51074,0.618056 6.553383,2.163192 2.808592,0.412038 3.042642,-0.30904 2.398995,-1.10734 1.448187,-1.661015 c 0,0 0.418731,-1.46503 -0.804541,-4.133235 l -0.936197,-1.854164 0.263304,-1.467883 1.60909,-2.652493 2.340478,-1.751153 0.351086,-0.412035 1.281387,-0.963502 c 1.048699,-0.963519 1.515453,-1.299068 1.466366,-2.28548 -0.454308,-1.7264 -0.92931,-1.628464 -2.045605,-1.901472 l -2.106452,0.103009 -3.276683,0.824073 -2.333389,1.782396 -1.764702,2.156942 -3.199734,1.668029 -4.181227,0.647096 -5.453809,0.206524 c 0,0 -6.533838,0.452228 -2.949578,-7.435912 l 1.544704,-2.469695 0.623127,-2.491277 -0.965459,-1.042967 -1.535953,-0.128759 -2.486771,0.206017 -4.446937,2.06018 -1.521328,1.442127"
       id="path1860"
       sodipodi:nodetypes="ccccccccccccccccccccccccccccccccccccccccccccccccccc" />
    <path
       style="fill:#5c5c5c;fill-opacity:1;stroke-width:0.138936"
       d="m 25.010848,58.277213 c -4.79947,-1.384871 -7.917761,-2.35208 -8.092252,-2.509992 -0.156135,-0.141301 -0.346404,-0.48199 -0.422822,-0.757087 -0.194261,-0.699338 -0.190395,-39.355988 0.004,-40.055941 0.174616,-0.628712 0.718226,-1.082681 1.298336,-1.084238 0.238044,-7.08e-4 3.85818,0.982057 8.044749,2.183769 l 7.611944,2.184927 7.609053,-2.183766 c 4.184975,-1.201072 7.762086,-2.183767 7.949124,-2.183767 0.187038,0 1.215176,0.250085 2.284744,0.555745 1.069574,0.305658 1.951908,0.555744 1.960754,0.555744 0.0089,0 0.126753,-0.289814 0.262032,-0.644032 0.387509,-1.014677 1.78723,-2.995258 2.74119,-3.878731 2.362031,-2.1875114 5.129311,-3.2807534 8.30443,-3.2807534 1.696115,0 3.016415,0.247633 4.510917,0.846058 2.748833,1.100688 5.241056,3.4655134 6.429071,6.1004484 0.195298,0.433148 0.365504,0.802036 0.378247,0.819751 0.01281,0.01771 0.894296,-0.216741 1.959,-0.52101 1.064713,-0.304272 2.130698,-0.55322 2.368863,-0.55322 0.579763,0 1.12377,0.453736 1.298552,1.083075 0.218085,0.785227 0.18237,39.541845 -0.03705,40.167955 -0.0912,0.26029 -0.322129,0.58519 -0.513166,0.721988 -0.435404,0.311794 -15.720572,4.709531 -16.368858,4.709531 -0.261887,0 -3.875833,-0.974353 -8.030998,-2.165224 l -7.554847,-2.165231 -7.537595,2.166318 c -4.548097,1.307135 -7.758012,2.16126 -8.093342,2.153548 -0.30566,-0.007 -4.069514,-1.026673 -8.364118,-2.265865 z m 15.971851,-2.794715 c 4.143824,-1.184425 7.75399,-2.153507 8.022587,-2.153507 0.268592,0 3.879577,0.969313 8.024412,2.154032 l 7.536056,2.154033 6.981738,-1.995257 6.981729,-1.995258 0.0352,-18.20452 0.0352,-18.204516 -0.973234,0.297176 -0.973225,0.297178 -0.05364,1.597235 c -0.0609,1.812189 -0.334188,2.976699 -1.190771,5.07387 -1.536452,3.761716 -5.710346,9.926334 -9.199338,13.586953 -0.969311,1.017001 -1.047555,1.068208 -1.631773,1.067904 -0.569557,-2.76e-4 -0.674479,-0.06268 -1.460913,-0.868675 C 62.650709,37.811551 61.560987,36.540029 60.6951,35.463545 55.116743,28.528329 52.478675,23.228404 52.478675,18.956473 V 17.814146 L 50.741544,17.320879 49.0044,16.82761 l -7.781533,2.224135 -7.781531,2.224132 -7.015247,-2.007878 -7.015246,-2.00788 0.03525,18.193502 0.03525,18.193511 6.877339,1.980076 c 3.782537,1.089039 6.925141,1.986537 6.98356,1.994437 0.05845,0.0079 3.496624,-0.954716 7.640448,-2.139147 z m 24.58403,-21.153033 c 3.603749,-4.381422 6.52883,-9.098164 7.544706,-12.165933 1.133283,-3.422381 0.376265,-6.807839 -2.084769,-9.323208 -1.015924,-1.038351 -2.143327,-1.741113 -3.61368,-2.252569 -0.984503,-0.342456 -1.306712,-0.386163 -2.846853,-0.386163 -1.535421,0 -1.86384,0.04425 -2.833667,0.381736 -1.597164,0.555802 -2.870363,1.367922 -3.917233,2.498641 -1.634897,1.765833 -2.551735,4.324264 -2.374287,6.625398 0.262334,3.401867 2.941323,8.280641 7.838435,14.274757 0.6399,0.783253 1.217078,1.424096 1.282588,1.424096 0.06548,0 0.51766,-0.48454 1.00476,-1.076755 z m -2.112083,-9.811308 c -1.635107,-0.356684 -3.142988,-1.571818 -3.864451,-3.11419 -0.325119,-0.695057 -0.371613,-0.968263 -0.371613,-2.183808 0,-1.215546 0.04651,-1.48875 0.371613,-2.183808 1.042521,-2.22874 3.534751,-3.576221 5.844289,-3.159847 1.755769,0.316537 3.351964,1.544441 4.107588,3.159847 0.325463,0.695779 0.371481,0.966999 0.370586,2.183808 -5.88e-4,1.280326 -0.03601,1.461207 -0.447228,2.304828 -0.76537,1.570318 -2.270843,2.713504 -3.99258,3.031784 -0.966685,0.178702 -1.027306,0.177542 -2.018204,-0.03861 z M 65.683,21.370925 c 1.733473,-0.884351 1.733473,-3.41718 0,-4.301533 -1.396644,-0.712514 -3.07685,0.0329 -3.484215,1.54575 -0.537797,1.997203 1.622276,3.705673 3.484215,2.755783 z"
       id="path4996" />
    <circle
       style="fill:#ffffff;fill-opacity:1;stroke:none;stroke-width:2.71321"
       id="path6573"
       cx="64.634186"
       cy="19.1954"
       r="2.5635881" />
  </g>
</svg>
